<mxfile host="app.diagrams.net" modified="2023-11-08T15:57:36.672Z" agent="Mozilla/5.0 (Windows NT 10.0; Win64; x64) AppleWebKit/537.36 (KHTML, like Gecko) Chrome/119.0.0.0 Safari/537.36" etag="CYaQkSWGaBSboGAUqcxi" version="22.0.8" type="device">
  <diagram name="Page-1" id="vlpF36syVnqJg5dzy9l9">
    <mxGraphModel dx="1373" dy="694" grid="1" gridSize="10" guides="1" tooltips="1" connect="1" arrows="1" fold="1" page="1" pageScale="1" pageWidth="850" pageHeight="1100" math="0" shadow="0">
      <root>
        <mxCell id="0" />
        <mxCell id="1" parent="0" />
        <mxCell id="QpaVkg7NEf2v52s3Hvut-1" value="1.0" style="swimlane;childLayout=stackLayout;horizontal=1;startSize=50;horizontalStack=0;rounded=1;fontSize=14;fontStyle=0;strokeWidth=2;resizeParent=0;resizeLast=1;shadow=0;dashed=0;align=center;arcSize=4;whiteSpace=wrap;html=1;" parent="1" vertex="1">
          <mxGeometry x="317" y="40" width="160" height="120" as="geometry" />
        </mxCell>
        <mxCell id="QpaVkg7NEf2v52s3Hvut-2" value="&lt;span style=&quot;font-size: 14px;&quot;&gt;&amp;nbsp; &amp;nbsp; &amp;nbsp; &amp;nbsp;Makes Login&amp;nbsp;&lt;/span&gt;" style="align=left;strokeColor=none;fillColor=none;spacingLeft=4;fontSize=12;verticalAlign=top;resizable=0;rotatable=0;part=1;html=1;" parent="QpaVkg7NEf2v52s3Hvut-1" vertex="1">
          <mxGeometry y="50" width="160" height="70" as="geometry" />
        </mxCell>
        <mxCell id="QpaVkg7NEf2v52s3Hvut-3" value="&lt;span style=&quot;font-size: 14px;&quot;&gt;Admin&lt;/span&gt;" style="rounded=0;whiteSpace=wrap;html=1;" parent="1" vertex="1">
          <mxGeometry x="50" y="200" width="120" height="60" as="geometry" />
        </mxCell>
        <mxCell id="QpaVkg7NEf2v52s3Hvut-7" value="2.0" style="swimlane;childLayout=stackLayout;horizontal=1;startSize=50;horizontalStack=0;rounded=1;fontSize=14;fontStyle=0;strokeWidth=2;resizeParent=0;resizeLast=1;shadow=0;dashed=0;align=center;arcSize=4;whiteSpace=wrap;html=1;" parent="1" vertex="1">
          <mxGeometry x="330" y="200" width="160" height="120" as="geometry" />
        </mxCell>
        <mxCell id="QpaVkg7NEf2v52s3Hvut-8" value="&lt;font style=&quot;font-size: 14px;&quot;&gt;Add&amp;nbsp; Product&lt;/font&gt;" style="align=left;strokeColor=none;fillColor=none;spacingLeft=4;fontSize=12;verticalAlign=top;resizable=0;rotatable=0;part=1;html=1;" parent="QpaVkg7NEf2v52s3Hvut-7" vertex="1">
          <mxGeometry y="50" width="160" height="70" as="geometry" />
        </mxCell>
        <mxCell id="QpaVkg7NEf2v52s3Hvut-9" value="3.0" style="swimlane;childLayout=stackLayout;horizontal=1;startSize=50;horizontalStack=0;rounded=1;fontSize=14;fontStyle=0;strokeWidth=2;resizeParent=0;resizeLast=1;shadow=0;dashed=0;align=center;arcSize=4;whiteSpace=wrap;html=1;" parent="1" vertex="1">
          <mxGeometry x="330" y="370" width="160" height="120" as="geometry" />
        </mxCell>
        <mxCell id="QpaVkg7NEf2v52s3Hvut-10" value="&lt;span style=&quot;font-size: 14px;&quot;&gt;Update/Delete Products&lt;/span&gt;" style="align=left;strokeColor=none;fillColor=none;spacingLeft=4;fontSize=12;verticalAlign=top;resizable=0;rotatable=0;part=1;html=1;" parent="QpaVkg7NEf2v52s3Hvut-9" vertex="1">
          <mxGeometry y="50" width="160" height="70" as="geometry" />
        </mxCell>
        <mxCell id="QpaVkg7NEf2v52s3Hvut-11" value="4.0" style="swimlane;childLayout=stackLayout;horizontal=1;startSize=50;horizontalStack=0;rounded=1;fontSize=14;fontStyle=0;strokeWidth=2;resizeParent=0;resizeLast=1;shadow=0;dashed=0;align=center;arcSize=4;whiteSpace=wrap;html=1;" parent="1" vertex="1">
          <mxGeometry x="330" y="530" width="160" height="118" as="geometry" />
        </mxCell>
        <mxCell id="6N8YHsRxKtGQqh54dVR1-9" value="&lt;font style=&quot;font-size: 14px;&quot;&gt;View /Delete users&lt;/font&gt;" style="text;html=1;align=center;verticalAlign=middle;resizable=0;points=[];autosize=1;strokeColor=none;fillColor=none;" vertex="1" parent="QpaVkg7NEf2v52s3Hvut-11">
          <mxGeometry y="50" width="160" height="68" as="geometry" />
        </mxCell>
        <mxCell id="QpaVkg7NEf2v52s3Hvut-14" value="" style="endArrow=classic;html=1;rounded=0;exitX=0.428;exitY=0.006;exitDx=0;exitDy=0;exitPerimeter=0;entryX=0;entryY=0.25;entryDx=0;entryDy=0;" parent="1" source="QpaVkg7NEf2v52s3Hvut-3" target="QpaVkg7NEf2v52s3Hvut-2" edge="1">
          <mxGeometry width="50" height="50" relative="1" as="geometry">
            <mxPoint x="140" y="125" as="sourcePoint" />
            <mxPoint x="190" y="75" as="targetPoint" />
            <Array as="points">
              <mxPoint x="101" y="108" />
            </Array>
          </mxGeometry>
        </mxCell>
        <mxCell id="QpaVkg7NEf2v52s3Hvut-16" value="Login creditals" style="text;html=1;align=center;verticalAlign=middle;resizable=0;points=[];autosize=1;strokeColor=none;fillColor=none;" parent="1" vertex="1">
          <mxGeometry x="140" y="78" width="100" height="30" as="geometry" />
        </mxCell>
        <mxCell id="QpaVkg7NEf2v52s3Hvut-18" value="" style="endArrow=classic;html=1;rounded=0;entryX=0.001;entryY=0.378;entryDx=0;entryDy=0;exitX=0.657;exitY=0.979;exitDx=0;exitDy=0;exitPerimeter=0;entryPerimeter=0;" parent="1" source="QpaVkg7NEf2v52s3Hvut-3" target="QpaVkg7NEf2v52s3Hvut-8" edge="1">
          <mxGeometry width="50" height="50" relative="1" as="geometry">
            <mxPoint x="210" y="350" as="sourcePoint" />
            <mxPoint x="260" y="300" as="targetPoint" />
            <Array as="points">
              <mxPoint x="130" y="280" />
            </Array>
          </mxGeometry>
        </mxCell>
        <mxCell id="QpaVkg7NEf2v52s3Hvut-23" value="" style="endArrow=classic;html=1;rounded=0;exitX=0.25;exitY=1;exitDx=0;exitDy=0;entryX=0;entryY=0.25;entryDx=0;entryDy=0;" parent="1" target="QpaVkg7NEf2v52s3Hvut-10" edge="1">
          <mxGeometry width="50" height="50" relative="1" as="geometry">
            <mxPoint x="109.99999999999977" y="260" as="sourcePoint" />
            <mxPoint x="320" y="520" as="targetPoint" />
            <Array as="points">
              <mxPoint x="110" y="438" />
            </Array>
          </mxGeometry>
        </mxCell>
        <mxCell id="QpaVkg7NEf2v52s3Hvut-32" value="&lt;span style=&quot;font-size: 14px;&quot;&gt;admin&lt;/span&gt;" style="shape=partialRectangle;whiteSpace=wrap;html=1;left=0;right=0;fillColor=none;" parent="1" vertex="1">
          <mxGeometry x="650" y="18" width="120" height="60" as="geometry" />
        </mxCell>
        <mxCell id="QpaVkg7NEf2v52s3Hvut-37" value="&lt;font style=&quot;font-size: 14px;&quot;&gt;Product&lt;/font&gt;" style="shape=partialRectangle;whiteSpace=wrap;html=1;left=0;right=0;fillColor=none;" parent="1" vertex="1">
          <mxGeometry x="670" y="170" width="120" height="60" as="geometry" />
        </mxCell>
        <mxCell id="QpaVkg7NEf2v52s3Hvut-38" value="&lt;span style=&quot;font-size: 14px;&quot;&gt;user_login&lt;/span&gt;" style="shape=partialRectangle;whiteSpace=wrap;html=1;left=0;right=0;fillColor=none;" parent="1" vertex="1">
          <mxGeometry x="710" y="460" width="120" height="60" as="geometry" />
        </mxCell>
        <mxCell id="QpaVkg7NEf2v52s3Hvut-44" value="" style="endArrow=classic;html=1;rounded=0;exitX=0.25;exitY=1;exitDx=0;exitDy=0;" parent="1" edge="1" target="6N8YHsRxKtGQqh54dVR1-9" source="QpaVkg7NEf2v52s3Hvut-38">
          <mxGeometry width="50" height="50" relative="1" as="geometry">
            <mxPoint x="700" y="750" as="sourcePoint" />
            <mxPoint x="490" y="770" as="targetPoint" />
            <Array as="points">
              <mxPoint x="740" y="614" />
            </Array>
          </mxGeometry>
        </mxCell>
        <mxCell id="QpaVkg7NEf2v52s3Hvut-51" value="&lt;span style=&quot;font-size: 14px;&quot;&gt;details&lt;/span&gt;" style="text;html=1;align=center;verticalAlign=middle;resizable=0;points=[];autosize=1;strokeColor=none;fillColor=none;" parent="1" vertex="1">
          <mxGeometry x="530" y="78" width="60" height="30" as="geometry" />
        </mxCell>
        <mxCell id="6N8YHsRxKtGQqh54dVR1-1" value="Product details" style="text;html=1;align=center;verticalAlign=middle;resizable=0;points=[];autosize=1;strokeColor=none;fillColor=none;" vertex="1" parent="1">
          <mxGeometry x="180" y="245" width="100" height="30" as="geometry" />
        </mxCell>
        <mxCell id="6N8YHsRxKtGQqh54dVR1-2" value="" style="endArrow=classic;html=1;rounded=0;exitX=1;exitY=0.25;exitDx=0;exitDy=0;entryX=0.167;entryY=1;entryDx=0;entryDy=0;entryPerimeter=0;" edge="1" parent="1" source="QpaVkg7NEf2v52s3Hvut-8" target="QpaVkg7NEf2v52s3Hvut-37">
          <mxGeometry width="50" height="50" relative="1" as="geometry">
            <mxPoint x="400" y="350" as="sourcePoint" />
            <mxPoint x="710" y="356" as="targetPoint" />
            <Array as="points">
              <mxPoint x="690" y="268" />
            </Array>
          </mxGeometry>
        </mxCell>
        <mxCell id="6N8YHsRxKtGQqh54dVR1-3" value="Product List" style="text;html=1;align=center;verticalAlign=middle;resizable=0;points=[];autosize=1;strokeColor=none;fillColor=none;" vertex="1" parent="1">
          <mxGeometry x="540" y="240" width="90" height="30" as="geometry" />
        </mxCell>
        <mxCell id="6N8YHsRxKtGQqh54dVR1-4" value="" style="endArrow=classic;html=1;rounded=0;entryX=0.438;entryY=0.017;entryDx=0;entryDy=0;entryPerimeter=0;" edge="1" parent="1" target="QpaVkg7NEf2v52s3Hvut-7">
          <mxGeometry width="50" height="50" relative="1" as="geometry">
            <mxPoint x="400" y="160" as="sourcePoint" />
            <mxPoint x="450" y="200" as="targetPoint" />
          </mxGeometry>
        </mxCell>
        <mxCell id="6N8YHsRxKtGQqh54dVR1-5" value="" style="endArrow=classic;html=1;rounded=0;entryX=0.435;entryY=-0.006;entryDx=0;entryDy=0;entryPerimeter=0;" edge="1" parent="1" target="QpaVkg7NEf2v52s3Hvut-9">
          <mxGeometry width="50" height="50" relative="1" as="geometry">
            <mxPoint x="400" y="320" as="sourcePoint" />
            <mxPoint x="400" y="450" as="targetPoint" />
            <Array as="points">
              <mxPoint x="400" y="320" />
            </Array>
          </mxGeometry>
        </mxCell>
        <mxCell id="6N8YHsRxKtGQqh54dVR1-6" value="Product details" style="text;html=1;align=center;verticalAlign=middle;resizable=0;points=[];autosize=1;strokeColor=none;fillColor=none;" vertex="1" parent="1">
          <mxGeometry x="160" y="410" width="100" height="30" as="geometry" />
        </mxCell>
        <mxCell id="6N8YHsRxKtGQqh54dVR1-7" value="" style="endArrow=classic;html=1;rounded=0;exitX=1;exitY=0.25;exitDx=0;exitDy=0;entryX=0.652;entryY=1.002;entryDx=0;entryDy=0;entryPerimeter=0;" edge="1" parent="1" source="QpaVkg7NEf2v52s3Hvut-10" target="QpaVkg7NEf2v52s3Hvut-37">
          <mxGeometry width="50" height="50" relative="1" as="geometry">
            <mxPoint x="390" y="570" as="sourcePoint" />
            <mxPoint x="730" y="510" as="targetPoint" />
            <Array as="points">
              <mxPoint x="750" y="438" />
            </Array>
          </mxGeometry>
        </mxCell>
        <mxCell id="6N8YHsRxKtGQqh54dVR1-8" value="product details" style="text;html=1;align=center;verticalAlign=middle;resizable=0;points=[];autosize=1;strokeColor=none;fillColor=none;" vertex="1" parent="1">
          <mxGeometry x="545" y="410" width="100" height="30" as="geometry" />
        </mxCell>
        <mxCell id="6N8YHsRxKtGQqh54dVR1-12" value="Fetch users" style="text;html=1;align=center;verticalAlign=middle;resizable=0;points=[];autosize=1;strokeColor=none;fillColor=none;" vertex="1" parent="1">
          <mxGeometry x="560" y="590" width="90" height="30" as="geometry" />
        </mxCell>
        <mxCell id="6N8YHsRxKtGQqh54dVR1-13" value="" style="endArrow=classic;html=1;rounded=0;exitX=1.006;exitY=0.851;exitDx=0;exitDy=0;exitPerimeter=0;entryX=0.5;entryY=1;entryDx=0;entryDy=0;" edge="1" parent="1">
          <mxGeometry width="50" height="50" relative="1" as="geometry">
            <mxPoint x="490.96000000000004" y="639.8679999999999" as="sourcePoint" />
            <mxPoint x="770" y="522" as="targetPoint" />
            <Array as="points">
              <mxPoint x="770" y="640" />
            </Array>
          </mxGeometry>
        </mxCell>
        <mxCell id="6N8YHsRxKtGQqh54dVR1-14" value="Response" style="text;html=1;align=center;verticalAlign=middle;resizable=0;points=[];autosize=1;strokeColor=none;fillColor=none;" vertex="1" parent="1">
          <mxGeometry x="610" y="640" width="80" height="30" as="geometry" />
        </mxCell>
        <mxCell id="6N8YHsRxKtGQqh54dVR1-15" value="" style="endArrow=classic;html=1;rounded=0;" edge="1" parent="1" source="QpaVkg7NEf2v52s3Hvut-32">
          <mxGeometry width="50" height="50" relative="1" as="geometry">
            <mxPoint x="700" y="80" as="sourcePoint" />
            <mxPoint x="480" y="110" as="targetPoint" />
            <Array as="points">
              <mxPoint x="700" y="80" />
              <mxPoint x="700" y="110" />
            </Array>
          </mxGeometry>
        </mxCell>
        <mxCell id="6N8YHsRxKtGQqh54dVR1-17" value="" style="endArrow=classic;html=1;rounded=0;exitX=0.5;exitY=1;exitDx=0;exitDy=0;entryX=0.5;entryY=0;entryDx=0;entryDy=0;" edge="1" parent="1" source="QpaVkg7NEf2v52s3Hvut-10" target="QpaVkg7NEf2v52s3Hvut-11">
          <mxGeometry width="50" height="50" relative="1" as="geometry">
            <mxPoint x="680" y="490" as="sourcePoint" />
            <mxPoint x="730" y="440" as="targetPoint" />
          </mxGeometry>
        </mxCell>
        <mxCell id="6N8YHsRxKtGQqh54dVR1-18" value="4.0" style="swimlane;childLayout=stackLayout;horizontal=1;startSize=50;horizontalStack=0;rounded=1;fontSize=14;fontStyle=0;strokeWidth=2;resizeParent=0;resizeLast=1;shadow=0;dashed=0;align=center;arcSize=4;whiteSpace=wrap;html=1;" vertex="1" parent="1">
          <mxGeometry x="330" y="690" width="170" height="118" as="geometry" />
        </mxCell>
        <mxCell id="6N8YHsRxKtGQqh54dVR1-19" value="&lt;font style=&quot;font-size: 14px;&quot;&gt;View /Delete feedbackss&lt;/font&gt;" style="text;html=1;align=center;verticalAlign=middle;resizable=0;points=[];autosize=1;strokeColor=none;fillColor=none;" vertex="1" parent="6N8YHsRxKtGQqh54dVR1-18">
          <mxGeometry y="50" width="170" height="68" as="geometry" />
        </mxCell>
        <mxCell id="6N8YHsRxKtGQqh54dVR1-21" value="" style="edgeStyle=orthogonalEdgeStyle;rounded=0;orthogonalLoop=1;jettySize=auto;html=1;" edge="1" parent="1" source="6N8YHsRxKtGQqh54dVR1-9">
          <mxGeometry relative="1" as="geometry">
            <mxPoint x="410" y="690" as="targetPoint" />
          </mxGeometry>
        </mxCell>
        <mxCell id="6N8YHsRxKtGQqh54dVR1-24" value="&lt;span style=&quot;font-size: 14px;&quot;&gt;feedback&lt;/span&gt;" style="shape=partialRectangle;whiteSpace=wrap;html=1;left=0;right=0;fillColor=none;" vertex="1" parent="1">
          <mxGeometry x="720" y="680" width="120" height="60" as="geometry" />
        </mxCell>
        <mxCell id="6N8YHsRxKtGQqh54dVR1-25" value="" style="endArrow=classic;html=1;rounded=0;exitX=0.25;exitY=1;exitDx=0;exitDy=0;" edge="1" parent="1" source="6N8YHsRxKtGQqh54dVR1-24">
          <mxGeometry width="50" height="50" relative="1" as="geometry">
            <mxPoint x="750" y="750" as="sourcePoint" />
            <mxPoint x="500" y="784" as="targetPoint" />
            <Array as="points">
              <mxPoint x="750" y="784" />
            </Array>
          </mxGeometry>
        </mxCell>
        <mxCell id="6N8YHsRxKtGQqh54dVR1-26" value="feedbacks" style="text;html=1;align=center;verticalAlign=middle;resizable=0;points=[];autosize=1;strokeColor=none;fillColor=none;" vertex="1" parent="1">
          <mxGeometry x="560" y="758" width="80" height="30" as="geometry" />
        </mxCell>
        <mxCell id="6N8YHsRxKtGQqh54dVR1-27" value="" style="endArrow=classic;html=1;rounded=0;exitX=1.006;exitY=0.851;exitDx=0;exitDy=0;exitPerimeter=0;" edge="1" parent="1">
          <mxGeometry width="50" height="50" relative="1" as="geometry">
            <mxPoint x="500.00000000000006" y="797.8679999999999" as="sourcePoint" />
            <mxPoint x="779" y="740" as="targetPoint" />
            <Array as="points">
              <mxPoint x="779.04" y="798" />
            </Array>
          </mxGeometry>
        </mxCell>
        <mxCell id="6N8YHsRxKtGQqh54dVR1-28" value="response" style="text;html=1;align=center;verticalAlign=middle;resizable=0;points=[];autosize=1;strokeColor=none;fillColor=none;" vertex="1" parent="1">
          <mxGeometry x="655" y="798" width="70" height="30" as="geometry" />
        </mxCell>
        <mxCell id="6N8YHsRxKtGQqh54dVR1-29" value="5.0" style="swimlane;childLayout=stackLayout;horizontal=1;startSize=50;horizontalStack=0;rounded=1;fontSize=14;fontStyle=0;strokeWidth=2;resizeParent=0;resizeLast=1;shadow=0;dashed=0;align=center;arcSize=4;whiteSpace=wrap;html=1;" vertex="1" parent="1">
          <mxGeometry x="330" y="840" width="170" height="118" as="geometry" />
        </mxCell>
        <mxCell id="6N8YHsRxKtGQqh54dVR1-30" value="&lt;span style=&quot;font-size: 14px;&quot;&gt;logouts&lt;/span&gt;" style="text;html=1;align=center;verticalAlign=middle;resizable=0;points=[];autosize=1;strokeColor=none;fillColor=none;" vertex="1" parent="6N8YHsRxKtGQqh54dVR1-29">
          <mxGeometry y="50" width="170" height="68" as="geometry" />
        </mxCell>
        <mxCell id="6N8YHsRxKtGQqh54dVR1-32" value="" style="endArrow=classic;html=1;rounded=0;exitX=0.504;exitY=1.015;exitDx=0;exitDy=0;exitPerimeter=0;entryX=0.5;entryY=0;entryDx=0;entryDy=0;" edge="1" parent="1" source="6N8YHsRxKtGQqh54dVR1-19" target="6N8YHsRxKtGQqh54dVR1-29">
          <mxGeometry width="50" height="50" relative="1" as="geometry">
            <mxPoint x="420" y="860" as="sourcePoint" />
            <mxPoint x="470" y="810" as="targetPoint" />
          </mxGeometry>
        </mxCell>
      </root>
    </mxGraphModel>
  </diagram>
</mxfile>
